# xmcd CD database file
#
# Track frame offsets:
#	150
#	18526
#	47647
#	61363
#	78255
#	89867
#	100530
#	115106
#	144034
#	163863
#	177796
#	202969
#	216251
#	235016
#	248163
#
# Disc length: 3485 seconds
#
# Revision: 0
# Processed by: cddbd v1.5.2PL0 Copyright (c) Steve Scherf et al.
# Submitted via: CDex 1.51
#
DISCID=c10d9b0f
DTITLE=Various Artist - Jazz For Lovers
DYEAR=1900
DGENRE=Jazz
TTITLE0=Nina Simone - I Loves You, Porgy
TTITLE1=Carmen McRae - My Foolish Heart
TTITLE2=Sarah Vaughan - Misty
TTITLE3=Ella Fitzgerald - Someone To Watch Over Me
TTITLE4=Miles Davis - Round Midnight
TTITLE5=Glenn Miller - Danny Boy
TTITLE6=Billie Holiday - Solitude
TTITLE7=Chet Baker - Deep In A Dream
TTITLE8=Ella Fitzgerald - Moanin' Low
TTITLE9=Billie Holiday - The Man I Love
TTITLE10=Thelonious Monk - Ruby My Dear
TTITLE11=Duke Ellington - Flamingo
TTITLE12=Miles Davis - Out Of Nowhere
TTITLE13=Ella Fitzgerald - My Happiness
TTITLE14=Billie Holiday - Body And Soul
EXTD=
EXTT0=
EXTT1=
EXTT2=
EXTT3=
EXTT4=
EXTT5=
EXTT6=
EXTT7=
EXTT8=
EXTT9=
EXTT10=
EXTT11=
EXTT12=
EXTT13=
EXTT14=
PLAYORDER=
